<svg xmlns="http://www.w3.org/2000/svg" width="32" height="32"><path fill="#0166FF" d="M0 0h32v32H0z"/><path fill="#FFF" d="M24.412 21.176c0-.36-.126-.665-.377-.917l-2.804-2.805c-.25-.252-.556-.377-.916-.377-.377 0-.7.144-.97.43.026.028.11.11.255.25.143.14.24.236.29.29.048.054.116.14.2.256s.145.23.176.344.047.236.047.37c0 .36-.126.666-.377.918-.252.252-.557.377-.917.377-.136 0-.26-.016-.372-.047s-.227-.09-.344-.175-.202-.152-.256-.2c-.054-.05-.15-.147-.29-.29-.14-.145-.222-.23-.25-.257-.296.28-.444.607-.444.984 0 .36.126.665.377.917l2.778 2.79c.243.243.548.364.917.364.36 0 .665-.117.917-.35l1.982-1.968c.252-.252.378-.553.378-.904zm-9.477-9.503c0-.36-.126-.665-.377-.917l-2.777-2.79c-.25-.252-.556-.377-.916-.377-.35 0-.656.12-.917.363L7.967 9.92c-.253.252-.378.553-.378.903 0 .36.125.665.376.917l2.804 2.804c.243.243.548.364.917.364.377 0 .7-.14.97-.418-.026-.027-.11-.11-.255-.25-.144-.138-.24-.235-.29-.29-.05-.053-.117-.138-.202-.255-.085-.117-.144-.23-.175-.344s-.047-.235-.047-.37c0-.36.126-.665.377-.917s.557-.377.917-.377c.135 0 .258.016.37.047s.228.09.345.175c.117.085.202.153.256.202.054.05.15.146.29.29.14.144.222.23.25.256.294-.278.442-.606.442-.983zM27 21.176c0 1.078-.382 1.99-1.146 2.737l-1.982 1.968c-.745.747-1.658 1.12-2.736 1.12-1.087 0-2.004-.382-2.75-1.146l-2.777-2.79c-.747-.746-1.12-1.658-1.12-2.737 0-1.105.395-2.045 1.186-2.817l-1.186-1.186c-.773.79-1.708 1.186-2.804 1.186-1.078 0-1.995-.377-2.75-1.132l-2.804-2.804C5.377 12.82 5 11.902 5 10.824s.382-1.99 1.146-2.737L8.128 6.12C8.873 5.372 9.786 5 10.864 5c1.087 0 2.004.382 2.75 1.146l2.777 2.79c.747.746 1.12 1.658 1.12 2.737 0 1.105-.395 2.045-1.186 2.817l1.186 1.186c.773-.79 1.708-1.186 2.804-1.186 1.078 0 1.995.377 2.75 1.132l2.804 2.804c.755.755 1.132 1.672 1.132 2.75z"/></svg>